<svg xmlns="http://www.w3.org/2000/svg" viewBox="0 0 512 512">
  <rect width="512" height="512" rx="80" fill="#0d1117"/>
  <rect x="60" y="60" width="392" height="392" rx="48" fill="#161b22"/>
  <rect x="110" y="130" width="120" height="12" rx="6" fill="#7c3aed"/>
  <rect x="110" y="162" width="80" height="12" rx="6" fill="#7c3aed" opacity="0.6"/>
  <rect x="110" y="220" width="120" height="12" rx="6" fill="#7c3aed"/>
  <rect x="110" y="252" width="100" height="12" rx="6" fill="#7c3aed" opacity="0.6"/>
  <rect x="110" y="310" width="120" height="12" rx="6" fill="#3fb950"/>
  <rect x="110" y="342" width="60" height="12" rx="6" fill="#3fb950" opacity="0.6"/>
  <circle cx="90" cy="136" r="10" fill="#7c3aed"/>
  <circle cx="90" cy="226" r="10" fill="#7c3aed"/>
  <circle cx="90" cy="316" r="10" fill="#3fb950"/>
  <rect x="280" y="130" width="130" height="240" rx="8" fill="#1f2937" stroke="#374151" stroke-width="2"/>
  <rect x="296" y="310" width="98" height="44" rx="4" fill="#7c3aed" opacity="0.8"/>
  <rect x="296" y="280" width="60" height="20" rx="4" fill="#3b82f6" opacity="0.6"/>
  <rect x="296" y="255" width="80" height="20" rx="4" fill="#f59e0b" opacity="0.6"/>
  <rect x="296" y="230" width="40" height="20" rx="4" fill="#ec4899" opacity="0.6"/>
</svg>
